<?xml version="1.0"?>
<svg xmlns="http://www.w3.org/2000/svg" xmlns:xlink="http://www.w3.org/1999/xlink" version="1.1" id="Capa_1" x="0px" y="0px" viewBox="0 0 32.634 32.634" style="enable-background:new 0 0 32.634 32.634;" xml:space="preserve" width="512px" height="512px" class=""><g><style xmlns="" type="text/css" id="night-mode-pro-style" class="active-path" style="fill:#FFFEFE" data-old_color="#F3F3F3"/><link xmlns="" type="text/css" rel="stylesheet" id="night-mode-pro-link" class="active-path" style="fill:#FFFEFE" data-old_color="#F3F3F3"/><g>
	<path d="M16.317,32.634c-0.276,0-0.5-0.224-0.5-0.5V0.5c0-0.276,0.224-0.5,0.5-0.5s0.5,0.224,0.5,0.5v31.634   C16.817,32.41,16.593,32.634,16.317,32.634z" data-original="#000000" class="active-path" data-old_color="#F3F3F3" fill="#FFFEFE"/>
	<path d="M16.315,32.634L16.315,32.634c-0.133,0-0.26-0.053-0.354-0.146L3.428,19.951c-0.195-0.195-0.195-0.512,0-0.707   s0.512-0.195,0.707,0l12.179,12.183l12.184-12.183c0.195-0.195,0.512-0.195,0.707,0s0.195,0.512,0,0.707L16.668,32.487   C16.574,32.581,16.448,32.634,16.315,32.634z" data-original="#000000" class="active-path" data-old_color="#F3F3F3" fill="#FFFEFE"/>
</g></g> </svg>
